<?xml version="1.0" encoding="utf-8"?>
<!-- Generator: Adobe Illustrator 16.0.3, SVG Export Plug-In . SVG Version: 6.00 Build 0)  -->
<!DOCTYPE svg PUBLIC "-//W3C//DTD SVG 1.1//EN" "http://www.w3.org/Graphics/SVG/1.1/DTD/svg11.dtd">
<svg version="1.1" xmlns="http://www.w3.org/2000/svg" xmlns:xlink="http://www.w3.org/1999/xlink" x="0px" y="0px"
	 width="1488.059px" height="401.176px" viewBox="0 0 1488.059 401.176" enable-background="new 0 0 1488.059 401.176"
	 xml:space="preserve">
<g id="Capa_4">
	<g id="Capa_1">
	</g>
</g>
<g id="Capa_2">
</g>
<g id="Capa_6">
	<g>
		<defs>
			<rect id="SVGID_1_" x="-373.092" y="-544.509" width="2201.889" height="1378.43"/>
		</defs>
		<clipPath id="SVGID_2_">
			<use xlink:href="#SVGID_1_"  overflow="visible"/>
		</clipPath>
		<g clip-path="url(#SVGID_2_)">
			<rect x="226.605" y="13.149" fill="none" width="1009.451" height="383.481"/>
			<text transform="matrix(1 0 0 1 412.0557 186.897)"><tspan x="0" y="0" fill="#B79800" font-family="'BakemonoStereoTrial-Bold'" font-size="250">Ticket </tspan><tspan x="-0.122" y="200" fill="#B79800" font-family="'BakemonoStereoTrial-Bold'" font-size="250">House</tspan></text>
		</g>
		<g clip-path="url(#SVGID_2_)">
			<g>
				<g>
					<path fill="#B79800" d="M372.684,43.119c0,39.674,0,79.348,0,119.021c0,59.362,0,118.723,0,178.084c0,9.298,0,18.596,0,27.894
						c3.333-3.333,6.667-6.667,10-10c-37.338,0-74.677,0-112.015,0c-62.56,0-125.121,0-187.681,0c-19.095,0-38.189,0-57.284,0
						c3.333,3.333,6.667,6.667,10,10c0-26.08,0-52.16,0-78.24c-2.447,3.214-4.895,6.429-7.342,9.643
						c45.62-9.186,88.863-44.292,89.314-93.896c0.45-49.506-44.373-84.859-89.314-93.907c2.447,3.214,4.895,6.428,7.342,9.643
						c0-26.081,0-52.161,0-78.241c-3.333,3.333-6.667,6.667-10,10c37.338,0,74.677,0,112.015,0c62.56,0,125.121,0,187.681,0
						c19.095,0,38.189,0,57.284,0c12.897,0,12.897-20,0-20c-37.338,0-74.677,0-112.015,0c-62.56,0-125.121,0-187.681,0
						c-19.095,0-38.189,0-57.284,0c-5.451,0-10,4.549-10,10c0,26.081,0,52.161,0,78.241c0,4.21,3.023,8.773,7.342,9.643
						c36.965,7.443,74.263,34.15,74.631,74.622c0.367,40.391-38.231,67.28-74.631,74.61c-4.319,0.869-7.342,5.433-7.342,9.643
						c0,26.08,0,52.16,0,78.24c0,5.451,4.549,10,10,10c37.338,0,74.677,0,112.015,0c62.56,0,125.121,0,187.681,0
						c19.095,0,38.189,0,57.284,0c5.451,0,10-4.549,10-10c0-39.674,0-79.348,0-119.021c0-59.361,0-118.723,0-178.084
						c0-9.298,0-18.596,0-27.894C392.684,30.221,372.684,30.221,372.684,43.119z"/>
				</g>
			</g>
			<g>
				<g>
					<path fill="#B79800" d="M228.242,43.124c0,41.469,0,82.938,0,124.407c0,12.897,20,12.897,20,0c0-41.469,0-82.938,0-124.407
						C248.242,30.226,228.242,30.226,228.242,43.124L228.242,43.124z"/>
				</g>
			</g>
			<g>
				<g>
					<path fill="#B79800" d="M228.242,243.709c0,41.469,0,82.938,0,124.406c0,12.897,20,12.897,20,0c0-41.469,0-82.938,0-124.406
						C248.242,230.812,228.242,230.812,228.242,243.709L228.242,243.709z"/>
				</g>
			</g>
		</g>
		<g clip-path="url(#SVGID_2_)">
			<g>
				<g>
					<g>
						<path fill="#B79800" d="M1104.117,368.117c0-39.674,0-79.348,0-119.021c0-59.361,0-118.723,0-178.084
							c0-9.298,0-18.596,0-27.894c-3.333,3.333-6.667,6.667-10,10c37.338,0,74.677,0,112.015,0c62.561,0,125.12,0,187.681,0
							c19.095,0,38.189,0,57.284,0c-3.333-3.333-6.667-6.667-10-10c0,26.08,0,52.16,0,78.24c2.447-3.214,4.895-6.429,7.342-9.643
							c-45.619,9.186-88.863,44.293-89.314,93.896c-0.45,49.506,44.373,84.857,89.314,93.905c-2.447-3.214-4.895-6.429-7.342-9.643
							c0,26.081,0,52.161,0,78.242c3.333-3.333,6.667-6.667,10-10c-37.338,0-74.677,0-112.015,0c-62.561,0-125.121,0-187.681,0
							c-19.095,0-38.189,0-57.284,0c-12.897,0-12.897,20,0,20c37.338,0,74.677,0,112.015,0c62.561,0,125.12,0,187.681,0
							c19.095,0,38.189,0,57.284,0c5.451,0,10-4.549,10-10c0-26.081,0-52.161,0-78.242c0-4.21-3.022-8.773-7.342-9.643
							c-36.965-7.442-74.263-34.148-74.631-74.62c-0.367-40.39,38.231-67.282,74.631-74.611c4.319-0.869,7.342-5.432,7.342-9.643
							c0-26.08,0-52.16,0-78.24c0-5.451-4.549-10-10-10c-37.338,0-74.677,0-112.015,0c-62.561,0-125.121,0-187.681,0
							c-19.095,0-38.189,0-57.284,0c-5.451,0-10,4.549-10,10c0,39.674,0,79.348,0,119.021c0,59.362,0,118.723,0,178.084
							c0,9.298,0,18.596,0,27.894C1084.117,381.014,1104.117,381.014,1104.117,368.117z"/>
					</g>
				</g>
				<g>
					<g>
						<path fill="#B79800" d="M1314.272,366.625c0-41.468,0-82.937,0-124.404c0-12.897-20-12.897-20,0c0,41.468,0,82.937,0,124.404
							C1294.272,379.522,1314.272,379.522,1314.272,366.625L1314.272,366.625z"/>
					</g>
				</g>
				<g>
					<g>
						<path fill="#B79800" d="M1314.272,166.041c0-41.469,0-82.938,0-124.407c0-12.897-20-12.897-20,0c0,41.469,0,82.938,0,124.407
							C1294.272,178.938,1314.272,178.938,1314.272,166.041L1314.272,166.041z"/>
					</g>
				</g>
			</g>
		</g>
	</g>
	<defs>
		
			<filter id="Adobe_OpacityMaskFilter" filterUnits="userSpaceOnUse" x="-247.842" y="-343.323" width="1928.861" height="1097.881">
			<feColorMatrix  type="matrix" values="1 0 0 0 0  0 1 0 0 0  0 0 1 0 0  0 0 0 1 0"/>
		</filter>
	</defs>
	<mask maskUnits="userSpaceOnUse" x="-247.842" y="-343.323" width="1928.861" height="1097.881" id="SVGID_3_">
		<g filter="url(#Adobe_OpacityMaskFilter)">
		</g>
	</mask>
	<linearGradient id="SVGID_4_" gradientUnits="userSpaceOnUse" x1="-247.8423" y1="205.6177" x2="1681.0186" y2="205.6177">
		<stop  offset="0" style="stop-color:#FFFFFF"/>
		<stop  offset="1" style="stop-color:#000000"/>
	</linearGradient>
	<rect x="-247.842" y="-343.323" mask="url(#SVGID_3_)" fill="url(#SVGID_4_)" width="1928.861" height="1097.881"/>
</g>
<g id="Capa_7">
</g>
</svg>
