<?xml version="1.0" encoding="utf-8"?>
<!-- Generator: Adobe Illustrator 16.0.3, SVG Export Plug-In . SVG Version: 6.00 Build 0)  -->
<!DOCTYPE svg PUBLIC "-//W3C//DTD SVG 1.1//EN" "http://www.w3.org/Graphics/SVG/1.1/DTD/svg11.dtd">
<svg version="1.1" xmlns="http://www.w3.org/2000/svg" xmlns:xlink="http://www.w3.org/1999/xlink" x="0px" y="0px" width="1138px"
	 height="276px" viewBox="0 0 1138 276" enable-background="new 0 0 1138 276" xml:space="preserve">
<g id="Capa_4">
	<g id="Capa_1">
	</g>
</g>
<g id="Capa_2">
</g>
<g id="Capa_6">
	<g>
		<defs>
			<rect id="SVGID_1_" x="-201.515" y="-333.515" width="1538.923" height="860.957"/>
		</defs>
		<clipPath id="SVGID_2_">
			<use xlink:href="#SVGID_1_"  overflow="visible"/>
		</clipPath>
		<g clip-path="url(#SVGID_2_)">
			<rect x="225.025" y="16.785" fill="none" width="695.629" height="242.182"/>
			<text transform="matrix(1.119 0 0 1 349.6958 125.3057)"><tspan x="0" y="0" fill="#0234BF" font-family="'BakemonoStereoTrial-Bold'" font-size="156.1476">Ticket </tspan><tspan x="-0.076" y="124.919" fill="#0234BF" font-family="'BakemonoStereoTrial-Bold'" font-size="156.1476">House</tspan></text>
		</g>
		<g clip-path="url(#SVGID_2_)">
			<g>
				<g>
					<path fill="#0234BF" d="M301.018,28.505c0,48.076,0,96.151,0,144.227c0,24.839,0,49.678,0,74.517
						c3.333-3.333,6.667-6.667,10-10c-43.058,0-86.116,0-129.174,0c-50.168,0-100.336,0-150.505,0c-0.87,0-1.741,0-2.611,0
						c3.333,3.333,6.667,6.667,10,10c0-17.535,0-35.071,0-52.606c-2.447,3.214-4.895,6.429-7.342,9.643
						c33.536-5.87,71.562-28.356,72.106-66.447c0.541-37.896-39.482-60.643-72.106-66.274c2.447,3.214,4.895,6.428,7.342,9.643
						c0-17.567,0-35.133,0-52.7c-3.333,3.333-6.667,6.667-10,10c43.058,0,86.116,0,129.173,0c50.168,0,100.337,0,150.505,0
						c0.87,0,1.741,0,2.611,0c12.897,0,12.897-20,0-20c-43.058,0-86.116,0-129.174,0c-50.168,0-100.336,0-150.505,0
						c-0.87,0-1.741,0-2.611,0c-5.451,0-10,4.549-10,10c0,17.567,0,35.133,0,52.7c0,4.116,3.017,8.896,7.342,9.643
						c14.579,2.517,29.28,7.447,40.898,16.912c9.836,8.013,16.357,18.48,16.524,30.077c0.162,11.285-6.442,21.356-15.522,29.348
						c-11.51,10.129-27.068,15.218-41.9,17.814c-4.325,0.757-7.342,5.519-7.342,9.643c0,17.535,0,35.071,0,52.606
						c0,5.451,4.549,10,10,10c43.058,0,86.116,0,129.173,0c50.168,0,100.337,0,150.505,0c0.87,0,1.741,0,2.611,0
						c5.451,0,10-4.549,10-10c0-48.075,0-96.151,0-144.227c0-24.839,0-49.678,0-74.517
						C321.018,15.607,301.018,15.607,301.018,28.505z"/>
				</g>
			</g>
			<g>
				<g>
					<path fill="#0234BF" d="M186.786,28.508c0,27.924,0,55.849,0,83.773c0,12.897,20,12.897,20,0c0-27.924,0-55.849,0-83.773
						C206.786,15.611,186.786,15.611,186.786,28.508L186.786,28.508z"/>
				</g>
			</g>
			<g>
				<g>
					<path fill="#0234BF" d="M186.786,163.56c0,27.895,0,55.789,0,83.684c0,12.897,20,12.897,20,0c0-27.895,0-55.789,0-83.684
						C206.786,150.662,186.786,150.662,186.786,163.56L186.786,163.56z"/>
				</g>
			</g>
		</g>
		<g clip-path="url(#SVGID_2_)">
			<g>
				<g>
					<g>
						<path fill="#0234BF" d="M838.81,247.248c0-48.075,0-96.151,0-144.227c0-24.839,0-49.678,0-74.517
							c-3.333,3.333-6.667,6.667-10,10c42.149,0,84.3,0,126.449,0c53.146,0,106.29,0,159.436,0c2.272,0,4.545,0,6.817,0
							c-3.333-3.333-6.667-6.667-10-10c0,17.567,0,35.133,0,52.7c2.447-3.214,4.895-6.429,7.342-9.643
							c-33.741,5.59-74.092,27.448-74.654,66.265c-0.563,38.789,41.703,60.922,74.654,66.457c-2.447-3.214-4.895-6.429-7.342-9.643
							c0,17.535,0,35.071,0,52.606c3.333-3.333,6.667-6.667,10-10c-42.149,0-84.3,0-126.449,0c-53.146,0-106.29,0-159.436,0
							c-2.272,0-4.545,0-6.817,0c-12.897,0-12.897,20,0,20c42.149,0,84.3,0,126.449,0c53.146,0,106.29,0,159.436,0
							c2.272,0,4.545,0,6.817,0c5.451,0,10-4.549,10-10c0-17.535,0-35.071,0-52.606c0-4.102-3.016-8.916-7.342-9.643
							c-15.08-2.534-30.541-7.407-42.731-16.993c-5.371-4.223-9.653-8.896-12.962-14.556c-2.94-5.029-4.197-10.05-4.277-15.623
							c-0.162-11.261,6.818-21.265,16.229-29.224c12.09-10.225,28.414-15.216,43.742-17.756c4.326-0.716,7.342-5.549,7.342-9.643
							c0-17.567,0-35.133,0-52.7c0-5.451-4.549-10-10-10c-42.149,0-84.3,0-126.449,0c-53.146,0-106.29,0-159.436,0
							c-2.272,0-4.545,0-6.817,0c-5.451,0-10,4.549-10,10c0,48.076,0,96.151,0,144.227c0,24.839,0,49.678,0,74.517
							C818.81,260.146,838.81,260.146,838.81,247.248z"/>
					</g>
				</g>
				<g>
					<g>
						<path fill="#0234BF" d="M957.333,247.243c0-27.895,0-55.789,0-83.684c0-12.897-20-12.897-20,0c0,27.895,0,55.789,0,83.684
							C937.333,260.141,957.333,260.141,957.333,247.243L957.333,247.243z"/>
					</g>
				</g>
				<g>
					<g>
						<path fill="#0234BF" d="M957.333,112.281c0-27.925,0-55.85,0-83.774c0-12.897-20-12.897-20,0c0,27.925,0,55.85,0,83.774
							C937.333,125.179,957.333,125.179,957.333,112.281L957.333,112.281z"/>
					</g>
				</g>
			</g>
		</g>
	</g>
</g>
<g id="Capa_3" display="none">
	<rect x="985.569" y="-52.383" display="inline" width="76.496" height="337.483"/>
	<rect x="114.113" y="-132.391" display="inline" width="76.496" height="337.483"/>
</g>
<g id="Capa_7">
</g>
</svg>
